# Blender 5.0.0
# www.blender.org
mtllib pillar.mtl
o Cylinder
v 0.000000 -0.544146 -0.643458
v 0.000000 0.544146 -0.643458
v 0.125532 -0.544146 -0.631094
v 0.125532 0.544146 -0.631094
v 0.246241 -0.544146 -0.594478
v 0.246241 0.544146 -0.594478
v 0.357486 -0.544146 -0.535016
v 0.357486 0.544146 -0.535016
v 0.454993 -0.544146 -0.454993
v 0.454993 0.544146 -0.454993
v 0.535016 -0.544146 -0.357486
v 0.535016 0.544146 -0.357486
v 0.594478 -0.544146 -0.246241
v 0.594478 0.544146 -0.246241
v 0.631094 -0.544146 -0.125532
v 0.631094 0.544146 -0.125532
v 0.643458 -0.544146 -0.000000
v 0.643458 0.544146 -0.000000
v 0.631094 -0.544146 0.125532
v 0.631094 0.544146 0.125532
v 0.594478 -0.544146 0.246241
v 0.594478 0.544146 0.246241
v 0.535016 -0.544146 0.357486
v 0.535016 0.544146 0.357486
v 0.454993 -0.544146 0.454993
v 0.454993 0.544146 0.454993
v 0.357486 -0.544146 0.535016
v 0.357486 0.544146 0.535016
v 0.246241 -0.544146 0.594478
v 0.246241 0.544146 0.594478
v 0.125532 -0.544146 0.631094
v 0.125532 0.544146 0.631094
v 0.000000 -0.544146 0.643458
v 0.000000 0.544146 0.643458
v -0.125532 -0.544146 0.631094
v -0.125532 0.544146 0.631094
v -0.246241 -0.544146 0.594478
v -0.246241 0.544146 0.594478
v -0.357486 -0.544146 0.535016
v -0.357486 0.544146 0.535016
v -0.454993 -0.544146 0.454993
v -0.454993 0.544146 0.454993
v -0.535016 -0.544146 0.357486
v -0.535016 0.544146 0.357486
v -0.594478 -0.544146 0.246241
v -0.594478 0.544146 0.246241
v -0.631094 -0.544146 0.125532
v -0.631094 0.544146 0.125532
v -0.643458 -0.544146 -0.000000
v -0.643458 0.544146 -0.000000
v -0.631094 -0.544146 -0.125532
v -0.631094 0.544146 -0.125532
v -0.594478 -0.544146 -0.246241
v -0.594478 0.544146 -0.246241
v -0.535016 -0.544146 -0.357486
v -0.535016 0.544146 -0.357486
v -0.454993 -0.544146 -0.454993
v -0.454993 0.544146 -0.454993
v -0.357486 -0.544146 -0.535016
v -0.357486 0.544146 -0.535016
v -0.246241 -0.544146 -0.594478
v -0.246241 0.544146 -0.594478
v -0.125532 -0.544146 -0.631094
v -0.125532 0.544146 -0.631094
v 0.000000 0.724000 -0.687776
v 0.134178 0.724000 -0.674560
v 0.263200 0.724000 -0.635422
v 0.382108 0.724000 -0.571864
v 0.486331 0.724000 -0.486331
v 0.571864 0.724000 -0.382108
v 0.635422 0.724000 -0.263200
v 0.674560 0.724000 -0.134178
v 0.687776 0.724000 -0.000000
v 0.674560 0.724000 0.134178
v 0.635422 0.724000 0.263200
v 0.571864 0.724000 0.382108
v 0.486331 0.724000 0.486331
v 0.382108 0.724000 0.571864
v 0.263200 0.724000 0.635422
v 0.134178 0.724000 0.674560
v 0.000000 0.724000 0.687776
v -0.134178 0.724000 0.674560
v -0.263200 0.724000 0.635422
v -0.382108 0.724000 0.571864
v -0.486331 0.724000 0.486331
v -0.571864 0.724000 0.382108
v -0.635422 0.724000 0.263200
v -0.674560 0.724000 0.134178
v -0.687776 0.724000 -0.000000
v -0.674560 0.724000 -0.134178
v -0.635422 0.724000 -0.263200
v -0.571864 0.724000 -0.382108
v -0.486331 0.724000 -0.486331
v -0.382108 0.724000 -0.571864
v -0.263200 0.724000 -0.635422
v -0.134178 0.724000 -0.674560
v 0.000000 0.840633 -0.687776
v 0.134178 0.840633 -0.674560
v 0.263200 0.840633 -0.635422
v 0.382108 0.840633 -0.571864
v 0.486331 0.840633 -0.486331
v 0.571864 0.840633 -0.382108
v 0.635422 0.840633 -0.263200
v 0.674560 0.840633 -0.134178
v 0.687776 0.840633 -0.000000
v 0.674560 0.840633 0.134178
v 0.635422 0.840633 0.263200
v 0.571864 0.840633 0.382108
v 0.486331 0.840633 0.486331
v 0.382108 0.840633 0.571864
v 0.263200 0.840633 0.635422
v 0.134178 0.840633 0.674560
v 0.000000 0.840633 0.687776
v -0.134178 0.840633 0.674560
v -0.263200 0.840633 0.635422
v -0.382108 0.840633 0.571864
v -0.486331 0.840633 0.486331
v -0.571864 0.840633 0.382108
v -0.635422 0.840633 0.263200
v -0.674560 0.840633 0.134178
v -0.687776 0.840633 -0.000000
v -0.674560 0.840633 -0.134178
v -0.635422 0.840633 -0.263200
v -0.571864 0.840633 -0.382108
v -0.486331 0.840633 -0.486331
v -0.382108 0.840633 -0.571864
v -0.263200 0.840633 -0.635422
v -0.134178 0.840633 -0.674560
v 0.000000 0.967119 -0.784681
v 0.153084 0.967119 -0.769604
v 0.300285 0.967119 -0.724951
v 0.435946 0.967119 -0.652439
v 0.554853 0.967119 -0.554853
v 0.652439 0.967119 -0.435946
v 0.724951 0.967119 -0.300285
v 0.769604 0.967119 -0.153084
v 0.784681 0.967119 -0.000000
v 0.769604 0.967119 0.153084
v 0.724951 0.967119 0.300285
v 0.652439 0.967119 0.435946
v 0.554853 0.967119 0.554853
v 0.435946 0.967119 0.652439
v 0.300285 0.967119 0.724951
v 0.153084 0.967119 0.769604
v 0.000000 0.967119 0.784681
v -0.153084 0.967119 0.769604
v -0.300285 0.967119 0.724951
v -0.435946 0.967119 0.652439
v -0.554853 0.967119 0.554853
v -0.652439 0.967119 0.435946
v -0.724951 0.967119 0.300285
v -0.769604 0.967119 0.153084
v -0.784681 0.967119 -0.000000
v -0.769604 0.967119 -0.153084
v -0.724951 0.967119 -0.300285
v -0.652439 0.967119 -0.435946
v -0.554853 0.967119 -0.554853
v -0.435946 0.967119 -0.652439
v -0.300285 0.967119 -0.724951
v -0.153084 0.967119 -0.769604
vn 0.0980 -0.0000 -0.9952
vn 0.2903 -0.0000 -0.9569
vn 0.4714 -0.0000 -0.8819
vn 0.6344 -0.0000 -0.7730
vn 0.7730 -0.0000 -0.6344
vn 0.8819 -0.0000 -0.4714
vn 0.9569 -0.0000 -0.2903
vn 0.9952 -0.0000 -0.0980
vn 0.9952 -0.0000 0.0980
vn 0.9569 -0.0000 0.2903
vn 0.8819 -0.0000 0.4714
vn 0.7730 -0.0000 0.6344
vn 0.6344 -0.0000 0.7730
vn 0.4714 -0.0000 0.8819
vn 0.2903 -0.0000 0.9569
vn 0.0980 -0.0000 0.9952
vn -0.0980 -0.0000 0.9952
vn -0.2903 -0.0000 0.9569
vn -0.4714 -0.0000 0.8819
vn -0.6344 -0.0000 0.7730
vn -0.7730 -0.0000 0.6344
vn -0.8819 -0.0000 0.4714
vn -0.9569 -0.0000 0.2903
vn -0.9952 -0.0000 0.0980
vn -0.9952 -0.0000 -0.0980
vn -0.9569 -0.0000 -0.2903
vn -0.8819 -0.0000 -0.4714
vn -0.7730 -0.0000 -0.6344
vn -0.6344 -0.0000 -0.7730
vn -0.4714 -0.0000 -0.8819
vn 0.9294 -0.2382 0.2819
vn -0.2903 -0.0000 -0.9569
vn -0.0980 -0.0000 -0.9952
vn -0.0000 -1.0000 -0.0000
vn -0.4578 -0.2382 0.8565
vn -0.7508 -0.2382 -0.6161
vn 0.8565 -0.2382 -0.4578
vn 0.2819 -0.2382 0.9294
vn -0.9665 -0.2382 0.0952
vn 0.2819 -0.2382 -0.9294
vn 0.8565 -0.2382 0.4578
vn -0.6161 -0.2382 0.7508
vn -0.6161 -0.2382 -0.7508
vn 0.9294 -0.2382 -0.2819
vn 0.0952 -0.2382 0.9665
vn -0.9665 -0.2382 -0.0952
vn 0.4578 -0.2382 -0.8565
vn 0.7508 -0.2382 0.6161
vn -0.7508 -0.2382 0.6161
vn -0.4578 -0.2382 -0.8565
vn 0.9665 -0.2382 -0.0952
vn -0.0952 -0.2382 0.9665
vn -0.9294 -0.2382 -0.2819
vn 0.6161 -0.2382 -0.7508
vn 0.6161 -0.2382 0.7508
vn -0.8565 -0.2382 0.4578
vn -0.2819 -0.2382 -0.9294
vn 0.9665 -0.2382 0.0952
vn -0.2819 -0.2382 0.9294
vn -0.8565 -0.2382 -0.4578
vn 0.7508 -0.2382 -0.6161
vn 0.4578 -0.2382 0.8565
vn -0.9294 -0.2382 0.2819
vn 0.0952 -0.2382 -0.9665
vn -0.0952 -0.2382 -0.9665
vn 0.5045 -0.6063 -0.6147
vn -0.0000 1.0000 -0.0000
vn -0.2308 -0.6063 -0.7610
vn -0.2308 -0.6063 0.7610
vn 0.6147 -0.6063 -0.5045
vn -0.0779 -0.6063 -0.7914
vn -0.3749 -0.6063 0.7013
vn 0.7013 -0.6063 -0.3749
vn -0.5045 -0.6063 0.6147
vn 0.7610 -0.6063 -0.2308
vn -0.6147 -0.6063 0.5045
vn 0.7914 -0.6063 -0.0779
vn -0.7013 -0.6063 0.3749
vn 0.7914 -0.6063 0.0779
vn -0.7610 -0.6063 0.2308
vn 0.7610 -0.6063 0.2308
vn -0.7914 -0.6063 0.0779
vn 0.7013 -0.6063 0.3749
vn -0.7914 -0.6063 -0.0779
vn 0.6147 -0.6063 0.5045
vn -0.7610 -0.6063 -0.2308
vn 0.5045 -0.6063 0.6147
vn -0.7013 -0.6063 -0.3749
vn 0.3749 -0.6063 0.7013
vn 0.0779 -0.6063 -0.7914
vn -0.6147 -0.6063 -0.5045
vn 0.2308 -0.6063 0.7610
vn 0.2308 -0.6063 -0.7610
vn -0.5045 -0.6063 -0.6147
vn 0.0779 -0.6063 0.7914
vn 0.3749 -0.6063 -0.7013
vn -0.3749 -0.6063 -0.7013
vn -0.0779 -0.6063 0.7914
vt 0.540914 0.773963
vt 0.538667 0.499193
vt 0.570015 0.499454
vt 0.572263 0.774224
vt 0.599549 0.500229
vt 0.601796 0.774998
vt 0.626133 0.501486
vt 0.628380 0.776256
vt 0.648746 0.503178
vt 0.650993 0.777947
vt 0.423361 0.389416
vt 0.423361 0.114637
vt 0.445959 0.112760
vt 0.445959 0.387539
vt 0.472532 0.111286
vt 0.472532 0.386065
vt 0.502058 0.110270
vt 0.502058 0.385049
vt 0.533403 0.109752
vt 0.533403 0.384531
vt 0.565362 0.109752
vt 0.565362 0.384531
vt 0.596707 0.110270
vt 0.596707 0.385049
vt 0.626233 0.111286
vt 0.626233 0.386065
vt 0.652806 0.112760
vt 0.652806 0.387539
vt 0.675405 0.114637
vt 0.675405 0.389416
vt 0.025838 0.784233
vt 0.023590 0.509464
vt 0.050150 0.507772
vt 0.052398 0.782542
vt 0.079667 0.506515
vt 0.081915 0.781284
vt 0.111007 0.505741
vt 0.113255 0.780510
vt 0.142965 0.505479
vt 0.145213 0.780249
vt 0.174313 0.505741
vt 0.176561 0.780510
vt 0.203847 0.506515
vt 0.206094 0.781284
vt 0.230431 0.507772
vt 0.232678 0.782542
vt 0.253044 0.509464
vt 0.255291 0.784233
vt 0.725763 0.387539
vt 0.725763 0.112760
vt 0.752336 0.111286
vt 0.752336 0.386065
vt 0.781862 0.110270
vt 0.781862 0.385049
vt 0.813207 0.109752
vt 0.813207 0.384531
vt 0.845166 0.109752
vt 0.845166 0.384531
vt 0.876511 0.110270
vt 0.876511 0.385049
vt 0.906037 0.111286
vt 0.906037 0.386065
vt 0.932610 0.112760
vt 0.932610 0.387539
vt 0.421540 0.777947
vt 0.419292 0.503178
vt 0.445852 0.501486
vt 0.448100 0.776256
vt 0.475369 0.500229
vt 0.477617 0.774998
vt 0.566463 0.063413
vt 0.599967 0.063967
vt 0.506709 0.499454
vt 0.508956 0.774224
vt 0.790433 0.707666
vt 0.760907 0.695436
vt 0.734334 0.677681
vt 0.711735 0.655082
vt 0.693980 0.628509
vt 0.681750 0.598983
vt 0.675515 0.567638
vt 0.675515 0.535679
vt 0.681750 0.504334
vt 0.693980 0.474808
vt 0.711735 0.448235
vt 0.734334 0.425636
vt 0.760907 0.407881
vt 0.790433 0.395651
vt 0.821778 0.389416
vt 0.853737 0.389416
vt 0.885082 0.395651
vt 0.914608 0.407881
vt 0.941181 0.425636
vt 0.963779 0.448235
vt 0.981535 0.474808
vt 0.993765 0.504334
vt 1.000000 0.535679
vt 1.000000 0.567638
vt 0.993765 0.598983
vt 0.981535 0.628509
vt 0.963779 0.655082
vt 0.941181 0.677681
vt 0.914608 0.695436
vt 0.885082 0.707666
vt 0.853737 0.713901
vt 0.821778 0.713901
vt 0.572896 0.453126
vt 0.539388 0.452847
vt 0.539148 0.423400
vt 0.572655 0.423679
vt 0.177194 0.459412
vt 0.208761 0.460240
vt 0.911330 0.065052
vt 0.939733 0.066629
vt 0.438836 0.066629
vt 0.467239 0.065052
vt 0.044479 0.461583
vt 0.076029 0.460240
vt 0.778602 0.063967
vt 0.812106 0.063413
vt 0.604463 0.453954
vt 0.631526 0.065052
vt 0.237177 0.461583
vt 0.411792 0.457106
vt 0.440181 0.455297
vt 0.498799 0.063967
vt 0.109528 0.459412
vt 0.846266 0.063413
vt 0.632878 0.455297
vt 0.659930 0.066629
vt 0.261347 0.463392
vt 0.471731 0.453954
vt 0.532303 0.063413
vt 0.143687 0.459133
vt 0.879770 0.063967
vt 0.657049 0.457106
vt 0.684084 0.068635
vt 0.718639 0.066629
vt 0.747042 0.065052
vt 0.505229 0.453126
vt 0.414681 0.068635
vt 0.016090 0.463392
vt 0.656808 0.427658
vt 0.632638 0.425850
vt 0.647939 0.392212
vt 0.675515 0.394275
vt 0.911330 0.035604
vt 0.939733 0.037180
vt 0.044239 0.432136
vt 0.075789 0.430792
vt 0.604222 0.424506
vt 0.411551 0.427659
vt 0.439940 0.425850
vt 0.109287 0.429965
vt 0.471490 0.424506
vt 0.143446 0.429686
vt 0.504989 0.423679
vt 0.176953 0.429965
vt 0.414681 0.039186
vt 0.438836 0.037180
vt 0.208521 0.430792
vt 0.467239 0.035604
vt 0.236936 0.432136
vt 0.498799 0.034519
vt 0.261106 0.433945
vt 0.532303 0.033965
vt 0.718639 0.037180
vt 0.747042 0.035604
vt 0.566463 0.033965
vt 0.778602 0.034519
vt 0.599967 0.034519
vt 0.812106 0.033965
vt 0.631526 0.035604
vt 0.846266 0.033965
vt 0.659930 0.037180
vt 0.879770 0.034519
vt 0.684084 0.039186
vt 0.015849 0.433945
vt 0.022518 0.291568
vt 0.007603 0.255562
vt -0.000000 0.217338
vt -0.000000 0.178364
vt 0.007603 0.140140
vt 0.022518 0.104133
vt 0.044170 0.071728
vt 0.071728 0.044170
vt 0.104133 0.022518
vt 0.140140 0.007603
vt 0.178364 -0.000000
vt 0.217338 -0.000000
vt 0.255562 0.007603
vt 0.291568 0.022518
vt 0.323974 0.044170
vt 0.351532 0.071728
vt 0.373184 0.104133
vt 0.388099 0.140140
vt 0.395702 0.178364
vt 0.395702 0.217338
vt 0.388099 0.255562
vt 0.373184 0.291568
vt 0.351532 0.323974
vt 0.323974 0.351532
vt 0.291568 0.373184
vt 0.255562 0.388099
vt 0.217338 0.395702
vt 0.178364 0.395702
vt 0.140140 0.388099
vt 0.104133 0.373184
vt 0.071728 0.351532
vt 0.044170 0.323974
vt 0.464086 0.390679
vt 0.502304 0.389735
vt 0.145574 0.395702
vt 0.183803 0.396021
vt 0.395702 0.005957
vt 0.423260 0.003668
vt 0.541276 0.389416
vt 0.219818 0.396965
vt 0.455665 0.001870
vt 0.252237 0.398498
vt 0.491672 0.000631
vt 0.279813 0.400561
vt 0.529896 0.000000
vt 0.703064 0.003668
vt 0.735469 0.001870
vt 0.568869 0.000000
vt 0.771475 0.000631
vt 0.607094 0.000631
vt 0.809700 0.000000
vt 0.643100 0.001870
vt 0.848673 0.000000
vt 0.675505 0.003668
vt 0.886897 0.000631
vt 0.703064 0.005957
vt 0.922904 0.001870
vt -0.000000 0.400561
vt 0.032389 0.398498
vt 0.579504 0.389735
vt 0.955309 0.003668
vt 0.068385 0.396965
vt 0.615520 0.390679
vt 0.395702 0.394275
vt 0.428091 0.392212
vt 0.106602 0.396021
s 0
usemtl concrete
f 1/1/1 2/2/1 4/3/1 3/4/1
f 3/4/2 4/3/2 6/5/2 5/6/2
f 5/6/3 6/5/3 8/7/3 7/8/3
f 7/8/4 8/7/4 10/9/4 9/10/4
f 9/11/5 10/12/5 12/13/5 11/14/5
f 11/14/6 12/13/6 14/15/6 13/16/6
f 13/16/7 14/15/7 16/17/7 15/18/7
f 15/18/8 16/17/8 18/19/8 17/20/8
f 17/20/9 18/19/9 20/21/9 19/22/9
f 19/22/10 20/21/10 22/23/10 21/24/10
f 21/24/11 22/23/11 24/25/11 23/26/11
f 23/26/12 24/25/12 26/27/12 25/28/12
f 25/28/13 26/27/13 28/29/13 27/30/13
f 27/31/14 28/32/14 30/33/14 29/34/14
f 29/34/15 30/33/15 32/35/15 31/36/15
f 31/36/16 32/35/16 34/37/16 33/38/16
f 33/38/17 34/37/17 36/39/17 35/40/17
f 35/40/18 36/39/18 38/41/18 37/42/18
f 37/42/19 38/41/19 40/43/19 39/44/19
f 39/44/20 40/43/20 42/45/20 41/46/20
f 41/46/21 42/45/21 44/47/21 43/48/21
f 43/49/22 44/50/22 46/51/22 45/52/22
f 45/52/23 46/51/23 48/53/23 47/54/23
f 47/54/24 48/53/24 50/55/24 49/56/24
f 49/56/25 50/55/25 52/57/25 51/58/25
f 51/58/26 52/57/26 54/59/26 53/60/26
f 53/60/27 54/59/27 56/61/27 55/62/27
f 55/62/28 56/61/28 58/63/28 57/64/28
f 57/65/29 58/66/29 60/67/29 59/68/29
f 59/68/30 60/67/30 62/69/30 61/70/30
f 22/23/31 20/21/31 74/71/31 75/72/31
f 61/70/32 62/69/32 64/73/32 63/74/32
f 63/74/33 64/73/33 2/2/33 1/1/33
f 1/75/34 3/76/34 5/77/34 7/78/34 9/79/34 11/80/34 13/81/34 15/82/34 17/83/34 19/84/34 21/85/34 23/86/34 25/87/34 27/88/34 29/89/34 31/90/34 33/91/34 35/92/34 37/93/34 39/94/34 41/95/34 43/96/34 45/97/34 47/98/34 49/99/34 51/100/34 53/101/34 55/102/34 57/103/34 59/104/34 61/105/34 63/106/34
f 66/107/1 65/108/1 97/109/1 98/110/1
f 40/43/35 38/41/35 83/111/35 84/112/35
f 58/63/36 56/61/36 92/113/36 93/114/36
f 14/15/37 12/13/37 70/115/37 71/116/37
f 32/35/38 30/33/38 79/117/38 80/118/38
f 50/55/39 48/53/39 88/119/39 89/120/39
f 6/5/40 4/3/40 66/107/40 67/121/40
f 24/25/41 22/23/41 75/72/41 76/122/41
f 42/45/42 40/43/42 84/112/42 85/123/42
f 60/67/43 58/66/43 93/124/43 94/125/43
f 16/17/44 14/15/44 71/116/44 72/126/44
f 34/37/45 32/35/45 80/118/45 81/127/45
f 52/57/46 50/55/46 89/120/46 90/128/46
f 8/7/47 6/5/47 67/121/47 68/129/47
f 26/27/48 24/25/48 76/122/48 77/130/48
f 44/47/49 42/45/49 85/123/49 86/131/49
f 62/69/50 60/67/50 94/125/50 95/132/50
f 18/19/51 16/17/51 72/126/51 73/133/51
f 36/39/52 34/37/52 81/127/52 82/134/52
f 54/59/53 52/57/53 90/128/53 91/135/53
f 10/9/54 8/7/54 68/129/54 69/136/54
f 28/29/55 26/27/55 77/130/55 78/137/55
f 46/51/56 44/50/56 86/138/56 87/139/56
f 64/73/57 62/69/57 95/132/57 96/140/57
f 20/21/58 18/19/58 73/133/58 74/71/58
f 38/41/59 36/39/59 82/134/59 83/111/59
f 56/61/60 54/59/60 91/135/60 92/113/60
f 12/13/61 10/12/61 69/141/61 70/115/61
f 30/33/62 28/32/62 78/142/62 79/117/62
f 48/53/63 46/51/63 87/139/63 88/119/63
f 4/3/64 2/2/64 65/108/64 66/107/64
f 2/2/65 64/73/65 96/140/65 65/108/65
f 101/143/66 100/144/66 132/145/66 133/146/66
f 93/114/28 92/113/28 124/147/28 125/148/28
f 80/118/15 79/117/15 111/149/15 112/150/15
f 67/121/2 66/107/2 98/110/2 99/151/2
f 94/125/29 93/124/29 125/152/29 126/153/29
f 81/127/16 80/118/16 112/150/16 113/154/16
f 68/129/3 67/121/3 99/151/3 100/144/3
f 95/132/30 94/125/30 126/153/30 127/155/30
f 82/134/17 81/127/17 113/154/17 114/156/17
f 69/136/4 68/129/4 100/144/4 101/143/4
f 96/140/32 95/132/32 127/155/32 128/157/32
f 83/111/18 82/134/18 114/156/18 115/158/18
f 70/115/5 69/141/5 101/159/5 102/160/5
f 65/108/33 96/140/33 128/157/33 97/109/33
f 84/112/19 83/111/19 115/158/19 116/161/19
f 71/116/6 70/115/6 102/160/6 103/162/6
f 85/123/20 84/112/20 116/161/20 117/163/20
f 72/126/7 71/116/7 103/162/7 104/164/7
f 86/131/21 85/123/21 117/163/21 118/165/21
f 73/133/8 72/126/8 104/164/8 105/166/8
f 87/139/22 86/138/22 118/167/22 119/168/22
f 74/71/9 73/133/9 105/166/9 106/169/9
f 88/119/23 87/139/23 119/168/23 120/170/23
f 75/72/10 74/71/10 106/169/10 107/171/10
f 89/120/24 88/119/24 120/170/24 121/172/24
f 76/122/11 75/72/11 107/171/11 108/173/11
f 90/128/25 89/120/25 121/172/25 122/174/25
f 77/130/12 76/122/12 108/173/12 109/175/12
f 91/135/26 90/128/26 122/174/26 123/176/26
f 78/137/13 77/130/13 109/175/13 110/177/13
f 92/113/27 91/135/27 123/176/27 124/147/27
f 79/117/14 78/142/14 110/178/14 111/149/14
f 130/179/67 129/180/67 160/181/67 159/182/67 158/183/67 157/184/67 156/185/67 155/186/67 154/187/67 153/188/67 152/189/67 151/190/67 150/191/67 149/192/67 148/193/67 147/194/67 146/195/67 145/196/67 144/197/67 143/198/67 142/199/67 141/200/67 140/201/67 139/202/67 138/203/67 137/204/67 136/205/67 135/206/67 134/207/67 133/208/67 132/209/67 131/210/67
f 128/157/68 127/155/68 159/211/68 160/212/68
f 115/158/69 114/156/69 146/213/69 147/214/69
f 102/160/70 101/159/70 133/215/70 134/216/70
f 97/109/71 128/157/71 160/212/71 129/217/71
f 116/161/72 115/158/72 147/214/72 148/218/72
f 103/162/73 102/160/73 134/216/73 135/219/73
f 117/163/74 116/161/74 148/218/74 149/220/74
f 104/164/75 103/162/75 135/219/75 136/221/75
f 118/165/76 117/163/76 149/220/76 150/222/76
f 105/166/77 104/164/77 136/221/77 137/223/77
f 119/168/78 118/167/78 150/224/78 151/225/78
f 106/169/79 105/166/79 137/223/79 138/226/79
f 120/170/80 119/168/80 151/225/80 152/227/80
f 107/171/81 106/169/81 138/226/81 139/228/81
f 121/172/82 120/170/82 152/227/82 153/229/82
f 108/173/83 107/171/83 139/228/83 140/230/83
f 122/174/84 121/172/84 153/229/84 154/231/84
f 109/175/85 108/173/85 140/230/85 141/232/85
f 123/176/86 122/174/86 154/231/86 155/233/86
f 110/177/87 109/175/87 141/232/87 142/234/87
f 124/147/88 123/176/88 155/233/88 156/235/88
f 111/149/89 110/178/89 142/236/89 143/237/89
f 98/110/90 97/109/90 129/217/90 130/238/90
f 125/148/91 124/147/91 156/235/91 157/239/91
f 112/150/92 111/149/92 143/237/92 144/240/92
f 99/151/93 98/110/93 130/238/93 131/241/93
f 126/153/94 125/152/94 157/242/94 158/243/94
f 113/154/95 112/150/95 144/240/95 145/244/95
f 100/144/96 99/151/96 131/241/96 132/145/96
f 127/155/97 126/153/97 158/243/97 159/211/97
f 114/156/98 113/154/98 145/244/98 146/213/98
